<?xml version="1.0" encoding="utf-8"?>
<!-- Generator: Adobe Illustrator 19.1.0, SVG Export Plug-In . SVG Version: 6.00 Build 0)  -->
<!DOCTYPE svg PUBLIC "-//W3C//DTD SVG 1.1//EN" "http://www.w3.org/Graphics/SVG/1.1/DTD/svg11.dtd">
<svg version="1.1" id="Layer_1" xmlns="http://www.w3.org/2000/svg" xmlns:xlink="http://www.w3.org/1999/xlink" x="0px" y="0px"
	 width="32px" height="32px" viewBox="0 0 32 32" enable-background="new 0 0 32 32" xml:space="preserve">
<path d="M32,8.5C32,4.9,29.1,2,25.5,2c-2.8,0-5.3,1.8-6.2,4.5C18.3,6.2,17.2,6,16,6s-2.3,0.2-3.3,0.5C11.8,3.8,9.3,2,6.5,2
	C2.9,2,0,4.9,0,8.5c0,2.6,1.5,4.9,3.8,5.9C3.3,15.9,3,17.4,3,19c0,7.2,5.8,13,13,13s13-5.8,13-13c0-1.6-0.3-3.1-0.8-4.6
	C30.5,13.4,32,11.1,32,8.5z M10,15c0-1.1,0.9-2,2-2s2,0.9,2,2s-0.9,2-2,2S10,16.1,10,15z M19,27h-6c-0.6,0-1-0.4-1-1s0.4-1,1-1h2
	v-1.7l-1.8-2.7c-0.2-0.3-0.2-0.7,0-1s0.5-0.5,0.9-0.5h4c0.4,0,0.7,0.2,0.9,0.5c0.2,0.3,0.2,0.7,0,1l-2,2.7V25h2c0.6,0,1,0.4,1,1
	S19.6,27,19,27z M20,17c-1.1,0-2-0.9-2-2s0.9-2,2-2s2,0.9,2,2S21.1,17,20,17z"/>
</svg>
