<?xml version="1.0" encoding="utf-8"?>
<!-- Generator: Adobe Illustrator 19.1.0, SVG Export Plug-In . SVG Version: 6.00 Build 0)  -->
<!DOCTYPE svg PUBLIC "-//W3C//DTD SVG 1.1//EN" "http://www.w3.org/Graphics/SVG/1.1/DTD/svg11.dtd">
<svg version="1.1" id="Layer_1" xmlns="http://www.w3.org/2000/svg" xmlns:xlink="http://www.w3.org/1999/xlink" x="0px" y="0px"
	 width="32px" height="32px" viewBox="0 0 32 32" enable-background="new 0 0 32 32" xml:space="preserve">
<path d="M26.1,8.4l1.2-8.3l-7.4,4.5C18.6,4.2,17.3,4,16,4s-2.6,0.2-3.8,0.6L4.7,0.1l1.2,8.3C3.5,10.9,2,14.3,2,18
	c0,7.7,6.3,14,14,14s14-6.3,14-14C30,14.3,28.5,10.9,26.1,8.4z M8.6,10.7l5.8,2.9l-0.9,1.8l-5.8-2.9L8.6,10.7z M23,20
	c0,3.9-3.1,7-7,7s-7-3.1-7-7v-1h14V20z M18.6,15.3l-0.9-1.8l5.8-2.9l0.9,1.8L18.6,15.3z"/>
</svg>
