<?xml version="1.0" encoding="utf-8"?>
<!-- Generator: Adobe Illustrator 19.1.0, SVG Export Plug-In . SVG Version: 6.00 Build 0)  -->
<!DOCTYPE svg PUBLIC "-//W3C//DTD SVG 1.1//EN" "http://www.w3.org/Graphics/SVG/1.1/DTD/svg11.dtd">
<svg version="1.1" id="Layer_1" xmlns="http://www.w3.org/2000/svg" xmlns:xlink="http://www.w3.org/1999/xlink" x="0px" y="0px"
	 width="32px" height="32px" viewBox="0 0 32 32" enable-background="new 0 0 32 32" xml:space="preserve">
<path d="M16,0C7.7,0,1,6.7,1,15c0,5.1,2.7,9.9,7,12.7V31c0,0.6,0.4,1,1,1h3v-3h2v3h4v-3h2v3h3c0.6,0,1-0.4,1-1v-3.3
	c4.3-2.7,7-7.5,7-12.7C31,6.7,24.3,0,16,0z M10,21c-2.8,0-5-2.2-5-5s2.2-5,5-5s5,2.2,5,5S12.8,21,10,21z M18.9,25.4
	C18.8,25.8,18.4,26,18,26h-4c-0.4,0-0.8-0.2-0.9-0.6c-0.2-0.4-0.1-0.8,0.2-1.1l2-2c0.4-0.4,1-0.4,1.4,0l2,2
	C19,24.6,19.1,25,18.9,25.4z M22,21c-2.8,0-5-2.2-5-5s2.2-5,5-5s5,2.2,5,5S24.8,21,22,21z"/>
</svg>
